<?xml version="1.0" encoding="UTF-8"?>
<svg viewBox="0 0 512 512"
     xmlns="http://www.w3.org/2000/svg">
  <circle cx="256" cy="256" fill="#fff" r="256"/>
  // Blue
  <path
    d="m234.6 148.43c-52.554 5.9269-104.66 11.809-157.44 17.768-0.67632-5.8572-1.3121-11.364-2.0278-17.561 120.63-13.541 240.84-27.034 361.74-40.605 0.66708 5.8525 1.2946 11.358 1.9814 17.384-68.235 7.6906-136.02 15.33-204.25 23.015z"
    fill="#06c"/>
  // Yellow
  <path
    d="m237.25 392.89c-7.9915-1.5703-15.531-3.0995-23.072-4.6287 0.0466-0.564 0.093201-1.128 0.1398-1.692 3.4883-0.62277 6.9766-1.2455 10.74-1.9174 0.74954-11.598 10.074-6.4826 15.292-9.0897 2.4227-2.0907 5.0131-4.024 7.1892-6.3457 0.93104-0.99332 1.4872-2.832 1.3831-4.2245-0.9431-12.616-2.0477-25.22-3.1482-37.825-1.9698-22.56-3.9643-45.118-5.968-67.675-0.14642-1.6485-0.4494-3.2831-0.77458-5.6014-10.345 1.1352-20.52 2.2518-31.266 3.4309 0.58217 1.6883 0.95688 3.0781 1.5271 4.3824 6.8029 15.561 13.402 31.219 20.579 46.606 2.7065 5.803 2.5819 11.231 0.7394 16.92-4.8601 15.006-19.994 24.664-37.178 23.836-15.732-0.7583-29.613-11.813-32.661-26.84-0.79991-3.9441-0.31218-8.7229 1.2031-12.462 6.1256-15.116 12.888-29.975 19.4-44.935 0.58653-1.3473 1.0699-2.7394 1.8398-4.7266-35.535 4.0054-70.509 7.9476-106.04 11.952-0.69511-5.9637-1.3391-11.488-2.0518-17.604 120.64-13.606 240.84-27.162 361.65-40.787 0.70587 5.8267 1.3557 11.19 2.1137 17.448-35.728 4.0967-71.189 8.1627-107.4 12.315 0.65686 1.9212 1.0622 3.4414 1.6824 4.8682 5.6409 12.978 10.772 26.216 17.141 38.828 6.3269 12.53 3.1774 22.839-5.2121 32.527-17.415 20.11-53.055 13.258-61.66-11.781-2.0128-5.8573-2.2755-11.473 0.50613-17.404 5.8675-12.509 11.23-25.255 16.78-37.913 0.72531-1.6543 1.3338-3.3598 2.3585-5.9606-9.1979 1.0861-17.738 1.8833-26.165 3.3352-1.1593 0.19975-2.3266 3.5926-2.5269 5.6031-1.5023 15.078-2.7896 30.177-4.0922 45.275-1.8318 21.23-3.5831 42.467-5.4678 63.692-0.24899 2.8043-0.14298 4.8743 3.2504 5.4921 0.97494 0.17749 2.3922 1.3098 2.5261 2.1722 0.85236 5.4883 4.8138 4.7722 8.6225 4.7409 7.0107-0.05777 7.755 0.59439 9.4797 7.7746 3.4471 0.57092 7.0209 1.1629 10.595 1.7548 0.030456 0.41482 0.060913 0.82965 0.091369 1.2444-20.042 6.8119-40.753 7.161-62.15 5.2142z"
    fill="#fc0"/>

  // balance 1
  <polygon fill="#fff" points="195.24 261.94 217.34 309.04 174.52 309.04"/>
  // balance 2
  <polygon fill="#fff" points="317.19 243.73 340.12 292.19 296.11 291.9"/>

  // Bottom
  <path
    d="m317.61 394.11c-2.272 2.032-4.3773 4.6295-6.9489 5.2301-8.7227 2.037-17.552 3.9133-26.446 4.8629-23.942 2.5562-47.859 1.8978-71.615-2.2389-3.7501-0.65308-7.4797-1.7231-11.038-3.0764-2.4192-0.9202-6.0056-1.5384-5.0838-5.5097 0.64293-2.7699 6.7945-4.7038 9.8546-3.7958 9.513 2.8227 18.934 6.4153 28.668 7.938 20.576 3.2188 41.149 2.1512 61.336-3.4334 3.0333-0.83914 6.0107-1.9894 8.8787-3.2932 5.5107-2.5053 8.3456-1.9105 12.395 3.3164z"
    fill="#fc0"/>

  // I
  <path
    d="m153.54 191.07c0.1306 1.4313 0.54921 2.5674 0.20276 3.3755-0.42795 0.99814-1.4702 2.3642-2.2866 2.3916-0.862 0.0289-2.4418-1.2426-2.5543-2.0978-1.0589-8.0459-1.9394-16.118-2.6473-24.203-0.07045-0.80455 1.3453-1.7392 2.0712-2.6135 0.98521 0.98282 2.676 1.8611 2.8397 2.9657 0.97067 6.5511 1.5874 13.155 2.3745 20.181z"
    fill="#333"/>
  //N
  <path
    d="m177.17 165.44c5.2127 5.8009 10.117 11.382 15.022 16.962 0.43436-0.10196 0.8687-0.20392 1.3031-0.30588-0.51309-4.7637-1.2119-9.5189-1.434-14.296-0.073257-1.5759 1.0847-3.2089 1.6797-4.8159 0.98451 1.3876 2.6211 2.6794 2.8414 4.1792 0.9899 6.7396 1.6793 13.53 2.2262 20.322 0.1126 1.3984-0.84845 2.8832-1.3146 4.3281-1.5834-0.57066-3.6256-0.70236-4.6674-1.7912-3.673-3.8387-7.1066-7.9238-10.4-12.097-0.9977-1.2641-1.2488-3.1175-1.8419-4.701l-2.2164 2.0402c0.60114 5.0005 1.347 9.9909 1.7007 15.009 0.087433 1.2399-1.0987 2.5697-1.6995 3.8582-0.92-1.0413-2.4917-1.9904-2.6542-3.139-1.0473-7.4012-1.8026-14.844-2.6185-22.277-0.30658-2.7933 0.83508-4.1354 4.0737-3.2751z"
    fill="#333"/>
  // V
  <path
    d="m235.01 181.14c-0.5808 1.7974-0.73427 3.4611-1.5998 4.5679-0.90218 1.1536-2.4689 2.3971-3.7859 2.4435-1.2946 0.045654-3.2911-1.0394-3.8593-2.1843-3.9672-7.9926-7.6434-16.13-11.517-24.444 3.1279-1.8989 5.0017-1.7616 6.3804 1.6678 2.5767 6.4094 5.4298 12.708 8.168 19.052 0.47868-2.75e-4 0.95737-5.65e-4 1.436-8.39e-4 1.0943-5.69 2.2062-11.377 3.2697-17.073 0.24318-1.3024-0.01474-2.8114 0.56139-3.9085 0.64566-1.2294 1.9766-2.099 3.0093-3.1251 0.71005 1.2186 2.1886 2.5706 2.004 3.6339-1.1051 6.3673-2.593 12.668-4.067 19.37z"
    fill="#333"/>
  // E
  <path
    d="m267.94 167.21c2.6934 0.54864 6.022-2.492 6.916 1.6966 0.091552 0.42905-3.6844 1.8352-5.7535 2.5239-1.5437 0.51376-3.2292 0.60135-5.0536 0.91325 0.34033 2.4713 0.65445 4.7521 1.0347 7.513 3.772-0.33142 7.3396-0.81833 10.911-0.85318 1.0733-0.010467 2.1588 1.238 3.2388 1.9097-0.8912 0.74194-1.6992 1.6416-2.7027 2.1708-0.67688 0.357-1.6317 0.17102-2.4583 0.26253-13.932 1.5422-13.908 1.5414-15.078-12.655-0.39365-4.7783-0.94324-9.5437-1.4685-14.783 5.6975-0.66019 10.938-1.3518 16.199-1.7887 0.81747-0.067887 1.7315 1.0278 2.601 1.5854-0.71057 0.89209-1.3013 2.4036-2.1526 2.5683-3.5556 0.68791-7.1895 0.97119-11.392 1.4743 1.4607 3.0011-2.5006 8.3939 5.1578 7.4625z"
    fill="#333"/>
  // S
  <path
    d="m304.58 167.31c-1.1523-0.37752-1.9725-0.55934-2.7228-0.89668-5.5212-2.4824-7.8562-7.1406-5.7461-11.396 2.1125-4.2599 9.6757-6.5047 14.026-3.9121 0.93655 0.55812 1.188 2.266 1.755 3.4442-1.1047 0.33852-2.193 0.84698-3.32 0.95647-0.76431 0.074249-1.7183-0.79773-2.3524-0.57559-1.9962 0.69923-3.8814 1.7152-5.8096 2.6086 1.297 1.4854 2.3615 3.3298 3.9531 4.36 1.759 1.1385 4.5148 1.0056 5.9114 2.372 2.0797 2.0347 4.7437 4.9886 4.5892 7.3856-0.17206 2.6693-2.7085 6.3788-5.1524 7.4052-3.0127 1.2653-7.0048 0.37471-10.541 0.056457-0.64755-0.058273-1.1407-1.8331-1.705-2.8156 1.009-0.49878 1.9787-1.1344 3.0431-1.44 0.55255-0.15865 1.2726 0.26669 1.9171 0.42754 3.048 0.76064 6.4347 1.1861 7.548-2.4401 1.1646-3.7935-2.4174-4.4394-5.3933-5.5402z"
    fill="#333"/>
  // T
  <path
    d="m338.94 166.2c-0.56262-5.0178-1.095-9.5872-1.6761-14.574-2.1698 0.1571-3.9636 0.50597-5.7005 0.32114-0.87976-0.093613-1.6569-1.151-2.4805-1.7727 0.64462-0.80519 1.2036-2.2135 1.9476-2.3191 5.4169-0.76906 10.865-1.3556 16.32-1.7802 0.82187-0.063965 1.7327 1.0145 2.6023 1.5645-0.72971 0.87607-1.298 2.1908-2.2246 2.5317-1.6424 0.60426-3.5024 0.61702-5.4748 0.90723 0.78686 7.3185 1.5538 14.219 2.2605 21.125 0.34137 3.3363 0.29001 3.3416-4.391 3.607-0.37964-3.0173-0.76617-6.0895-1.183-9.6101z"
    fill="#333"/>
  // R
  <path
    d="m197.72 216.41c-2.4909 2.085-4.783 3.8406-8.1241 6.3997 3.4929 1.2732 6.7381 2.421 9.9524 3.6495 0.94836 0.36244 1.8096 0.95279 2.7108 1.4387-0.67232 0.99477-1.4261 2.8853-2.0032 2.8328-2.8486-0.25891-5.9197-0.50427-8.3963-1.7666-2.6965-1.3744-4.8259-3.8611-7.987-6.5235 0.22534 3.0384 0.64632 5.1435 0.4269 7.1796-0.11963 1.11-1.3252 2.103-2.0409 3.1488-0.86987-0.76132-2.3963-1.4373-2.5081-2.2972-1.1115-8.5523-1.9894-17.135-3.0118-26.423 4.2259-0.45184 7.955-1.0849 11.7-1.204 8.8266-0.28059 12.39 4.8056 9.2809 13.565z"
    fill="#333"/>
  // R empty
  <path
    d="m193.66 214.32c-3.2659 1.7839-6.3607 3.2052-10.206 4.9713-0.62656-4.6964-1.036-7.7655-1.4327-10.739 8.1845-3.2811 12.259-1.3042 11.639 5.7675z"
    fill="#fff"/>
  // A1
  <path
    d="m232.33 199.58c4.6821 8.5765 9.1427 16.862 13.688 25.305-3.0752 2.0705-5.2099 1.5579-6.2037-1.4123-1.6398-4.9011-5.3591-3.398-8.6418-3.0756-3.0269 0.29733-6.492 0.072998-6.6944 4.7232-0.12998 2.9867-1.9247 3.9875-5.4283 2.7044 2.2951-9.0494 4.4099-18.171 6.9979-27.157 0.87799-3.0484 3.5476-3.025 6.2824-1.0879z"
    fill="#333"/>
  // A1 empty
  <path
    d="m233.05 210.08c0.90798 1.9609 1.6442 3.5726 2.6165 5.7014-3.2041 0.27051-5.7498 0.48543-9.0161 0.76118 0.93988-4.1582 1.7548-7.7635 2.9166-12.904 1.542 2.8369 2.4266 4.4644 3.483 6.4411z"
    fill="#fff"/>
  // D
  <path
    d="m269.05 223.09c-3.0115 0.48154-4.553-0.2782-4.8228-3.1738-0.66388-7.1233-1.3639-14.247-2.2795-21.341-0.43137-3.3421 0.91184-4.5757 4.0295-4.6347 1.6596-0.031418 3.3127-0.35553 4.9731-0.40744 8.7373-0.27322 13.755 3.8448 14.808 12.094 1.105 8.6595-3.0552 14.777-11.349 16.615-1.6203 0.35916-3.2781 0.54924-5.3593 0.84816z"
    fill="#333"/>
  // D empty
  <path
    d="m267.38 203.65c-0.055512-1.9085-0.055512-3.3772-0.055512-5.0533 4.0265-1.289 8.0052-1.5719 10.878 1.9909 3.1531 3.9106 3.4415 8.6331 1.4778 13.154-1.8708 4.3073-5.8726 4.7989-10.495 4.6026-0.58945-4.8008-1.1698-9.5277-1.8057-14.694z"
    fill="#fff"/>
  // A2
  <path
    d="m329.15 216.41c-1.6668-0.53036-3.8814-0.87849-4.2132-1.8618-2.1475-6.3661-7.0247-3.1378-10.885-3.4106-3.9153-0.27661-4.2164 2.5916-5.1196 5.3778-0.41864 1.2916-2.4305 2.0668-3.7201 3.076-0.49216-0.36494-0.98431-0.7299-1.4764-1.0949 2.3664-9.2333 4.483-18.542 7.2459-27.655 0.87027-2.8703 4.4309-3.2755 5.9526-0.6736 4.7737 8.1625 8.9846 16.655 13.355 25.05 0.08963 0.17218-0.52823 0.71271-1.139 1.1929z"
    fill="#333"/>
  // A2 empty
  <path
    d="m316.65 206.82c-1.8506 0.033401-3.2998 0.033401-5.3195 0.033401 0.93689-4.0224 1.8006-7.7307 2.9987-12.875 2.1497 4.1803 3.7929 6.9974 4.9671 9.998 0.21848 0.55821-1.4484 1.8542-2.6464 2.8432z"
    fill="#fff"/>
</svg>
